<mxfile host="app.diagrams.net" modified="2023-11-09T03:08:07.287Z" agent="Mozilla/5.0 (Windows NT 10.0; Win64; x64) AppleWebKit/537.36 (KHTML, like Gecko) Chrome/119.0.0.0 Safari/537.36" etag="DMa8u-cTFa1xi2OWl7U5" version="22.1.0" type="device" pages="6">
  <diagram id="C5RBs43oDa-KdzZeNtuy" name="BT1">
    <mxGraphModel dx="1290" dy="534" grid="1" gridSize="10" guides="1" tooltips="1" connect="1" arrows="1" fold="1" page="1" pageScale="1" pageWidth="827" pageHeight="1169" math="0" shadow="0">
      <root>
        <mxCell id="WIyWlLk6GJQsqaUBKTNV-0" />
        <mxCell id="WIyWlLk6GJQsqaUBKTNV-1" parent="WIyWlLk6GJQsqaUBKTNV-0" />
        <mxCell id="RpUv36ww8xjFqxz87pHx-1" style="edgeStyle=orthogonalEdgeStyle;rounded=0;orthogonalLoop=1;jettySize=auto;html=1;exitX=0.5;exitY=1;exitDx=0;exitDy=0;entryX=0.5;entryY=0;entryDx=0;entryDy=0;" edge="1" parent="WIyWlLk6GJQsqaUBKTNV-1" source="xayAEh7mQTVHOaWd_ndP-0" target="RpUv36ww8xjFqxz87pHx-0">
          <mxGeometry relative="1" as="geometry" />
        </mxCell>
        <mxCell id="xayAEh7mQTVHOaWd_ndP-0" value="Start" style="ellipse;whiteSpace=wrap;html=1;" parent="WIyWlLk6GJQsqaUBKTNV-1" vertex="1">
          <mxGeometry x="130" y="60" width="120" height="80" as="geometry" />
        </mxCell>
        <mxCell id="RpUv36ww8xjFqxz87pHx-3" value="" style="edgeStyle=orthogonalEdgeStyle;rounded=0;orthogonalLoop=1;jettySize=auto;html=1;" edge="1" parent="WIyWlLk6GJQsqaUBKTNV-1" source="RpUv36ww8xjFqxz87pHx-0" target="RpUv36ww8xjFqxz87pHx-2">
          <mxGeometry relative="1" as="geometry" />
        </mxCell>
        <mxCell id="RpUv36ww8xjFqxz87pHx-0" value="r,PI" style="shape=parallelogram;perimeter=parallelogramPerimeter;whiteSpace=wrap;html=1;fixedSize=1;" vertex="1" parent="WIyWlLk6GJQsqaUBKTNV-1">
          <mxGeometry x="130" y="180" width="120" height="60" as="geometry" />
        </mxCell>
        <mxCell id="RpUv36ww8xjFqxz87pHx-5" value="" style="edgeStyle=orthogonalEdgeStyle;rounded=0;orthogonalLoop=1;jettySize=auto;html=1;" edge="1" parent="WIyWlLk6GJQsqaUBKTNV-1" source="RpUv36ww8xjFqxz87pHx-2" target="RpUv36ww8xjFqxz87pHx-4">
          <mxGeometry relative="1" as="geometry" />
        </mxCell>
        <mxCell id="RpUv36ww8xjFqxz87pHx-2" value="PI=3.14" style="whiteSpace=wrap;html=1;" vertex="1" parent="WIyWlLk6GJQsqaUBKTNV-1">
          <mxGeometry x="130" y="300" width="120" height="60" as="geometry" />
        </mxCell>
        <mxCell id="RpUv36ww8xjFqxz87pHx-7" value="" style="edgeStyle=orthogonalEdgeStyle;rounded=0;orthogonalLoop=1;jettySize=auto;html=1;" edge="1" parent="WIyWlLk6GJQsqaUBKTNV-1" source="RpUv36ww8xjFqxz87pHx-4" target="RpUv36ww8xjFqxz87pHx-6">
          <mxGeometry relative="1" as="geometry" />
        </mxCell>
        <mxCell id="RpUv36ww8xjFqxz87pHx-4" value="CVT=r*2*PI&lt;br&gt;DVT=r*r*PI" style="whiteSpace=wrap;html=1;" vertex="1" parent="WIyWlLk6GJQsqaUBKTNV-1">
          <mxGeometry x="130" y="430" width="120" height="60" as="geometry" />
        </mxCell>
        <mxCell id="RpUv36ww8xjFqxz87pHx-9" value="" style="edgeStyle=orthogonalEdgeStyle;rounded=0;orthogonalLoop=1;jettySize=auto;html=1;" edge="1" parent="WIyWlLk6GJQsqaUBKTNV-1" source="RpUv36ww8xjFqxz87pHx-6" target="RpUv36ww8xjFqxz87pHx-8">
          <mxGeometry relative="1" as="geometry" />
        </mxCell>
        <mxCell id="RpUv36ww8xjFqxz87pHx-6" value="CVT&lt;br&gt;DTV" style="shape=parallelogram;perimeter=parallelogramPerimeter;whiteSpace=wrap;html=1;fixedSize=1;" vertex="1" parent="WIyWlLk6GJQsqaUBKTNV-1">
          <mxGeometry x="130" y="560" width="120" height="60" as="geometry" />
        </mxCell>
        <mxCell id="RpUv36ww8xjFqxz87pHx-8" value="End" style="ellipse;whiteSpace=wrap;html=1;" vertex="1" parent="WIyWlLk6GJQsqaUBKTNV-1">
          <mxGeometry x="130" y="680" width="120" height="80" as="geometry" />
        </mxCell>
      </root>
    </mxGraphModel>
  </diagram>
  <diagram id="1xkzSWBpe1msxJv8HMlB" name="BT2">
    <mxGraphModel dx="1290" dy="534" grid="1" gridSize="10" guides="1" tooltips="1" connect="1" arrows="1" fold="1" page="1" pageScale="1" pageWidth="827" pageHeight="1169" math="0" shadow="0">
      <root>
        <mxCell id="0" />
        <mxCell id="1" parent="0" />
        <mxCell id="xFjPpdjDOZMRNlHsK65v-9" value="" style="edgeStyle=orthogonalEdgeStyle;rounded=0;orthogonalLoop=1;jettySize=auto;html=1;" edge="1" parent="1" source="xFjPpdjDOZMRNlHsK65v-1" target="xFjPpdjDOZMRNlHsK65v-8">
          <mxGeometry relative="1" as="geometry" />
        </mxCell>
        <mxCell id="xFjPpdjDOZMRNlHsK65v-1" value="Start" style="strokeWidth=2;html=1;shape=mxgraph.flowchart.start_1;whiteSpace=wrap;" vertex="1" parent="1">
          <mxGeometry x="320" y="10" width="100" height="60" as="geometry" />
        </mxCell>
        <mxCell id="xFjPpdjDOZMRNlHsK65v-7" style="edgeStyle=orthogonalEdgeStyle;rounded=0;orthogonalLoop=1;jettySize=auto;html=1;exitX=0.5;exitY=1;exitDx=0;exitDy=0;exitPerimeter=0;" edge="1" parent="1" source="xFjPpdjDOZMRNlHsK65v-1" target="xFjPpdjDOZMRNlHsK65v-1">
          <mxGeometry relative="1" as="geometry" />
        </mxCell>
        <mxCell id="xFjPpdjDOZMRNlHsK65v-11" value="" style="edgeStyle=orthogonalEdgeStyle;rounded=0;orthogonalLoop=1;jettySize=auto;html=1;" edge="1" parent="1" source="xFjPpdjDOZMRNlHsK65v-8" target="xFjPpdjDOZMRNlHsK65v-10">
          <mxGeometry relative="1" as="geometry" />
        </mxCell>
        <mxCell id="xFjPpdjDOZMRNlHsK65v-8" value="&lt;div&gt;&amp;nbsp; &amp;nbsp; &amp;nbsp; &amp;nbsp; &amp;nbsp; &amp;nbsp; &amp;nbsp; &amp;nbsp; &amp;nbsp; &amp;nbsp; &amp;nbsp; &amp;nbsp; &amp;nbsp; &amp;nbsp; &amp;nbsp; &amp;nbsp; &amp;nbsp; &amp;nbsp; &amp;nbsp; &amp;nbsp; &amp;nbsp;DANH SACH SINH VIEN&amp;nbsp; &amp;nbsp; &amp;nbsp; &amp;nbsp; &amp;nbsp; &amp;nbsp; &amp;nbsp; &amp;nbsp; &amp;nbsp; &amp;nbsp; &amp;nbsp; &amp;nbsp; &amp;nbsp; &amp;nbsp; &amp;nbsp; &amp;nbsp; &amp;nbsp; &amp;nbsp; &amp;nbsp; &amp;nbsp; &amp;nbsp; &amp;nbsp; &amp;nbsp; &amp;nbsp;&amp;nbsp;&lt;/div&gt;&lt;div&gt;------------------------------------------------------------------------------------------------------------&lt;span style=&quot;&quot;&gt;&lt;/span&gt;&lt;/div&gt;&lt;div&gt;&lt;span style=&quot;&quot;&gt;&lt;span style=&quot;&quot;&gt;&lt;span style=&quot;white-space: pre;&quot;&gt;&amp;nbsp;&amp;nbsp;&amp;nbsp;&lt;/span&gt;&lt;/span&gt;| STT |&amp;nbsp; Ho va ten&amp;nbsp; &amp;nbsp; &amp;nbsp; &amp;nbsp; &amp;nbsp;|&amp;nbsp; &amp;nbsp;Tuoi&amp;nbsp; &amp;nbsp; &amp;nbsp;|&amp;nbsp; &amp;nbsp;So dien thoai&amp;nbsp; &amp;nbsp; &amp;nbsp; &amp;nbsp; &amp;nbsp; &amp;nbsp; &amp;nbsp; &amp;nbsp; |&amp;nbsp; &amp;nbsp;email&amp;nbsp; &amp;nbsp; &amp;nbsp; &amp;nbsp; &amp;nbsp; &amp;nbsp; &amp;nbsp; &amp;nbsp; &amp;nbsp; &amp;nbsp; &amp;nbsp; &amp;nbsp; &amp;nbsp;|&amp;nbsp; &amp;nbsp; &amp;nbsp;&lt;/span&gt;&lt;/div&gt;&lt;div&gt;&amp;nbsp; &amp;nbsp; ------------------------------------------------------------------------------------------------------------&lt;/div&gt;&lt;div&gt;| 1&amp;nbsp; &amp;nbsp;|&amp;nbsp; Nguyen Van A&amp;nbsp; &amp;nbsp; &amp;nbsp; |&amp;nbsp; &amp;nbsp;20&amp;nbsp; &amp;nbsp; &amp;nbsp; &amp;nbsp;|&amp;nbsp; &amp;nbsp;0904488481&amp;nbsp; &amp;nbsp; &amp;nbsp; &amp;nbsp; &amp;nbsp; &amp;nbsp; &amp;nbsp; &amp;nbsp; &amp;nbsp; &amp;nbsp;|&amp;nbsp; &amp;nbsp;anv@rikkeiacademy.com&amp;nbsp; &amp;nbsp; &amp;nbsp; &amp;nbsp; &amp;nbsp;|&lt;/div&gt;&lt;div&gt;&amp;nbsp; &amp;nbsp;------------------------------------------------------------------------------------------------------------&lt;/div&gt;&lt;div&gt;&amp;nbsp; &amp;nbsp;| 2&amp;nbsp; &amp;nbsp;|&amp;nbsp; Nguyen Van B&amp;nbsp; &amp;nbsp; &amp;nbsp; |&amp;nbsp; &amp;nbsp;21&amp;nbsp; &amp;nbsp; &amp;nbsp; &amp;nbsp;|&amp;nbsp; &amp;nbsp;0904488482&amp;nbsp; &amp;nbsp; &amp;nbsp; &amp;nbsp; &amp;nbsp; &amp;nbsp; &amp;nbsp; &amp;nbsp; &amp;nbsp; &amp;nbsp;|&amp;nbsp; &amp;nbsp;bnv@rikkeiacademy.com&amp;nbsp; &amp;nbsp; &amp;nbsp; &amp;nbsp; &amp;nbsp;|&amp;nbsp; &amp;nbsp;&lt;/div&gt;&lt;div&gt;------------------------------------------------------------------------------------------------------------&lt;/div&gt;&lt;div&gt;&amp;nbsp; &amp;nbsp;| 3&amp;nbsp; &amp;nbsp;|&amp;nbsp; Nguyen Van C&amp;nbsp; &amp;nbsp; &amp;nbsp; |&amp;nbsp; &amp;nbsp;18&amp;nbsp; &amp;nbsp; &amp;nbsp; &amp;nbsp;|&amp;nbsp; &amp;nbsp;0904488483&amp;nbsp; &amp;nbsp; &amp;nbsp; &amp;nbsp; &amp;nbsp; &amp;nbsp; &amp;nbsp; &amp;nbsp; &amp;nbsp; &amp;nbsp;|&amp;nbsp; &amp;nbsp;cnv@rikkeiacademy.com&amp;nbsp; &amp;nbsp; &amp;nbsp; &amp;nbsp; &amp;nbsp;|&amp;nbsp; &amp;nbsp;&lt;/div&gt;&lt;div&gt;&amp;nbsp; &amp;nbsp; printf(&quot;------------------------------------------------------------------------------------------------------------&lt;/div&gt;&lt;div&gt;&amp;nbsp;| 4&amp;nbsp; &amp;nbsp;|&amp;nbsp; Nguyen Van D&amp;nbsp; &amp;nbsp; &amp;nbsp; |&amp;nbsp; &amp;nbsp;19&amp;nbsp; &amp;nbsp; &amp;nbsp; &amp;nbsp;|&amp;nbsp; &amp;nbsp;0904488484&amp;nbsp; &amp;nbsp; &amp;nbsp; &amp;nbsp; &amp;nbsp; &amp;nbsp; &amp;nbsp; &amp;nbsp; &amp;nbsp; &amp;nbsp;|&amp;nbsp; &amp;nbsp;dnv@rikkeiacademy.com&amp;nbsp; &amp;nbsp; &amp;nbsp; &amp;nbsp; &amp;nbsp;|&amp;nbsp; &amp;nbsp;&amp;nbsp;&lt;/div&gt;&lt;div&gt;&amp;nbsp; &amp;nbsp;------------------------------------------------------------------------------------------------------------&lt;/div&gt;&lt;div&gt;&amp;nbsp; &amp;nbsp;| 5&amp;nbsp; &amp;nbsp;|&amp;nbsp; Nguyen Van E&amp;nbsp; &amp;nbsp; &amp;nbsp; |&amp;nbsp; &amp;nbsp;22&amp;nbsp; &amp;nbsp; &amp;nbsp; &amp;nbsp;|&amp;nbsp; &amp;nbsp;0904488485&amp;nbsp; &amp;nbsp; &amp;nbsp; &amp;nbsp; &amp;nbsp; &amp;nbsp; &amp;nbsp; &amp;nbsp; &amp;nbsp; &amp;nbsp;|&amp;nbsp; &amp;nbsp;env@rikkeiacademy.com&amp;nbsp; &amp;nbsp; &amp;nbsp; &amp;nbsp; &amp;nbsp;|&amp;nbsp; &amp;nbsp; &amp;nbsp;&lt;/div&gt;&lt;div&gt;&amp;nbsp; ------------------------------------------------------------------------------------------------------------;&lt;/div&gt;&lt;div&gt;&amp;nbsp; &amp;nbsp;| 6&amp;nbsp; &amp;nbsp;|&amp;nbsp; Nguyen Van F&amp;nbsp; &amp;nbsp; &amp;nbsp; |&amp;nbsp; &amp;nbsp;21&amp;nbsp; &amp;nbsp; &amp;nbsp; &amp;nbsp;|&amp;nbsp; &amp;nbsp;0904488486&amp;nbsp; &amp;nbsp; &amp;nbsp; &amp;nbsp; &amp;nbsp; &amp;nbsp; &amp;nbsp; &amp;nbsp; &amp;nbsp; &amp;nbsp;|&amp;nbsp; &amp;nbsp;fnv@rikkeiacademy.com&amp;nbsp; &amp;nbsp; &amp;nbsp; &amp;nbsp; &amp;nbsp;|&amp;nbsp; &amp;nbsp; &amp;nbsp;&lt;/div&gt;&lt;div&gt;------------------------------------------------------------------------------------------------------------&lt;/div&gt;&lt;div&gt;&amp;nbsp; &amp;nbsp;| 7&amp;nbsp; &amp;nbsp;|&amp;nbsp; Nguyen Van G&amp;nbsp; &amp;nbsp; &amp;nbsp; |&amp;nbsp; &amp;nbsp;23&amp;nbsp; &amp;nbsp; &amp;nbsp; &amp;nbsp;|&amp;nbsp; &amp;nbsp;0904488487&amp;nbsp; &amp;nbsp; &amp;nbsp; &amp;nbsp; &amp;nbsp; &amp;nbsp; &amp;nbsp; &amp;nbsp; &amp;nbsp; &amp;nbsp;|&amp;nbsp; &amp;nbsp;gnv@rikkeiacademy.com&amp;nbsp; &amp;nbsp; &amp;nbsp; &amp;nbsp; &amp;nbsp;|&amp;nbsp; &amp;nbsp; &amp;nbsp;&lt;/div&gt;&lt;div&gt;&amp;nbsp; ------------------------------------------------------------------------------------------------------------&lt;/div&gt;&lt;div&gt;&amp;nbsp; &amp;nbsp; 8&amp;nbsp; &amp;nbsp;|&amp;nbsp; Nguyen Van H&amp;nbsp; &amp;nbsp; &amp;nbsp; |&amp;nbsp; &amp;nbsp;19&amp;nbsp; &amp;nbsp; &amp;nbsp; &amp;nbsp;|&amp;nbsp; &amp;nbsp;0904488488&amp;nbsp; &amp;nbsp; &amp;nbsp; &amp;nbsp; &amp;nbsp; &amp;nbsp; &amp;nbsp; &amp;nbsp; &amp;nbsp; &amp;nbsp;|&amp;nbsp; &amp;nbsp;hnv@rikkeiacademy.com&amp;nbsp; &amp;nbsp; &amp;nbsp; &amp;nbsp; &amp;nbsp;|&amp;nbsp; &amp;nbsp; &amp;nbsp;&amp;nbsp;&lt;/div&gt;&lt;div&gt;------------------------------------------------------------------------------------------------------------&lt;/div&gt;&lt;div&gt;&amp;nbsp; &amp;nbsp;| 9&amp;nbsp; &amp;nbsp;|&amp;nbsp; Nguyen Van I&amp;nbsp; &amp;nbsp; &amp;nbsp; |&amp;nbsp; &amp;nbsp;18&amp;nbsp; &amp;nbsp; &amp;nbsp; &amp;nbsp;|&amp;nbsp; &amp;nbsp;0904488489&amp;nbsp; &amp;nbsp; &amp;nbsp; &amp;nbsp; &amp;nbsp; &amp;nbsp; &amp;nbsp; &amp;nbsp; &amp;nbsp; &amp;nbsp;|&amp;nbsp; &amp;nbsp;inv@rikkeiacademy.com&amp;nbsp; &amp;nbsp; &amp;nbsp; &amp;nbsp; &amp;nbsp;|&amp;nbsp; &amp;nbsp;&lt;/div&gt;&lt;div&gt;------------------------------------------------------------------------------------------------------------&lt;/div&gt;&lt;div&gt;&amp;nbsp; &amp;nbsp; | 10&amp;nbsp; |&amp;nbsp; Nguyen Van K&amp;nbsp; &amp;nbsp; &amp;nbsp; |&amp;nbsp; &amp;nbsp;21&amp;nbsp; &amp;nbsp; &amp;nbsp; &amp;nbsp;|&amp;nbsp; &amp;nbsp;0904488480&amp;nbsp; &amp;nbsp; &amp;nbsp; &amp;nbsp; &amp;nbsp; &amp;nbsp; &amp;nbsp; &amp;nbsp; &amp;nbsp; &amp;nbsp;|&amp;nbsp; &amp;nbsp;knv@rikkeiacademy.com&amp;nbsp; &amp;nbsp;&amp;nbsp;&lt;/div&gt;&lt;div&gt;&amp;nbsp; &amp;nbsp; ------------------------------------------------------------------------------------------------------------&lt;/div&gt;" style="shape=parallelogram;perimeter=parallelogramPerimeter;whiteSpace=wrap;html=1;fixedSize=1;strokeWidth=2;" vertex="1" parent="1">
          <mxGeometry x="55" y="220" width="630" height="390" as="geometry" />
        </mxCell>
        <mxCell id="xFjPpdjDOZMRNlHsK65v-10" value="End" style="ellipse;whiteSpace=wrap;html=1;" vertex="1" parent="1">
          <mxGeometry x="310" y="660" width="120" height="80" as="geometry" />
        </mxCell>
      </root>
    </mxGraphModel>
  </diagram>
  <diagram id="lPCM_Orpyic1YJfJfxVZ" name="BT3">
    <mxGraphModel dx="1290" dy="534" grid="1" gridSize="10" guides="1" tooltips="1" connect="1" arrows="1" fold="1" page="1" pageScale="1" pageWidth="827" pageHeight="1169" math="0" shadow="0">
      <root>
        <mxCell id="0" />
        <mxCell id="1" parent="0" />
        <mxCell id="h2RHiLlfG2E7YjiQeKBT-3" value="" style="edgeStyle=orthogonalEdgeStyle;rounded=0;orthogonalLoop=1;jettySize=auto;html=1;" edge="1" parent="1" source="h2RHiLlfG2E7YjiQeKBT-1" target="h2RHiLlfG2E7YjiQeKBT-2">
          <mxGeometry relative="1" as="geometry" />
        </mxCell>
        <mxCell id="h2RHiLlfG2E7YjiQeKBT-1" value="Start" style="ellipse;whiteSpace=wrap;html=1;" vertex="1" parent="1">
          <mxGeometry x="354" y="60" width="120" height="80" as="geometry" />
        </mxCell>
        <mxCell id="h2RHiLlfG2E7YjiQeKBT-5" value="" style="edgeStyle=orthogonalEdgeStyle;rounded=0;orthogonalLoop=1;jettySize=auto;html=1;" edge="1" parent="1" source="h2RHiLlfG2E7YjiQeKBT-2" target="h2RHiLlfG2E7YjiQeKBT-4">
          <mxGeometry relative="1" as="geometry" />
        </mxCell>
        <mxCell id="h2RHiLlfG2E7YjiQeKBT-2" value="toan,van,anh" style="shape=parallelogram;perimeter=parallelogramPerimeter;whiteSpace=wrap;html=1;fixedSize=1;" vertex="1" parent="1">
          <mxGeometry x="306" y="190" width="216" height="60" as="geometry" />
        </mxCell>
        <mxCell id="h2RHiLlfG2E7YjiQeKBT-9" value="" style="edgeStyle=orthogonalEdgeStyle;rounded=0;orthogonalLoop=1;jettySize=auto;html=1;" edge="1" parent="1" source="h2RHiLlfG2E7YjiQeKBT-4" target="h2RHiLlfG2E7YjiQeKBT-8">
          <mxGeometry relative="1" as="geometry" />
        </mxCell>
        <mxCell id="h2RHiLlfG2E7YjiQeKBT-4" value="diem_tong=toan+van+anh&lt;br&gt;diem_tb=diem_tong/3" style="whiteSpace=wrap;html=1;" vertex="1" parent="1">
          <mxGeometry x="326" y="320" width="176" height="60" as="geometry" />
        </mxCell>
        <mxCell id="h2RHiLlfG2E7YjiQeKBT-11" value="" style="edgeStyle=orthogonalEdgeStyle;rounded=0;orthogonalLoop=1;jettySize=auto;html=1;" edge="1" parent="1" source="h2RHiLlfG2E7YjiQeKBT-8" target="h2RHiLlfG2E7YjiQeKBT-10">
          <mxGeometry relative="1" as="geometry" />
        </mxCell>
        <mxCell id="h2RHiLlfG2E7YjiQeKBT-8" value="diem_tong&lt;br&gt;diem_tb" style="shape=parallelogram;perimeter=parallelogramPerimeter;whiteSpace=wrap;html=1;fixedSize=1;" vertex="1" parent="1">
          <mxGeometry x="354" y="440" width="120" height="60" as="geometry" />
        </mxCell>
        <mxCell id="h2RHiLlfG2E7YjiQeKBT-10" value="End" style="ellipse;whiteSpace=wrap;html=1;" vertex="1" parent="1">
          <mxGeometry x="354" y="545" width="120" height="80" as="geometry" />
        </mxCell>
      </root>
    </mxGraphModel>
  </diagram>
  <diagram id="NsL2CPaEQUua_I1LO7Yr" name="BT4">
    <mxGraphModel dx="1290" dy="534" grid="1" gridSize="10" guides="1" tooltips="1" connect="1" arrows="1" fold="1" page="1" pageScale="1" pageWidth="827" pageHeight="1169" math="0" shadow="0">
      <root>
        <mxCell id="0" />
        <mxCell id="1" parent="0" />
        <mxCell id="011xxZp6TQmj5CEeikQw-3" value="" style="edgeStyle=orthogonalEdgeStyle;rounded=0;orthogonalLoop=1;jettySize=auto;html=1;" edge="1" parent="1" source="011xxZp6TQmj5CEeikQw-1" target="011xxZp6TQmj5CEeikQw-2">
          <mxGeometry relative="1" as="geometry" />
        </mxCell>
        <mxCell id="011xxZp6TQmj5CEeikQw-1" value="Start" style="ellipse;whiteSpace=wrap;html=1;" vertex="1" parent="1">
          <mxGeometry x="320" y="50" width="120" height="80" as="geometry" />
        </mxCell>
        <mxCell id="HxF071hYW-Vpzkf4wwNU-2" value="" style="edgeStyle=orthogonalEdgeStyle;rounded=0;orthogonalLoop=1;jettySize=auto;html=1;" edge="1" parent="1" source="011xxZp6TQmj5CEeikQw-2" target="HxF071hYW-Vpzkf4wwNU-1">
          <mxGeometry relative="1" as="geometry" />
        </mxCell>
        <mxCell id="011xxZp6TQmj5CEeikQw-2" value="n1,n2,n3" style="shape=parallelogram;perimeter=parallelogramPerimeter;whiteSpace=wrap;html=1;fixedSize=1;" vertex="1" parent="1">
          <mxGeometry x="320" y="180" width="120" height="60" as="geometry" />
        </mxCell>
        <mxCell id="HxF071hYW-Vpzkf4wwNU-4" value="" style="edgeStyle=orthogonalEdgeStyle;rounded=0;orthogonalLoop=1;jettySize=auto;html=1;" edge="1" parent="1" source="HxF071hYW-Vpzkf4wwNU-1" target="HxF071hYW-Vpzkf4wwNU-3">
          <mxGeometry relative="1" as="geometry" />
        </mxCell>
        <mxCell id="HxF071hYW-Vpzkf4wwNU-1" value="max=n1&lt;br&gt;min=n1" style="whiteSpace=wrap;html=1;" vertex="1" parent="1">
          <mxGeometry x="320" y="320" width="120" height="60" as="geometry" />
        </mxCell>
        <mxCell id="HxF071hYW-Vpzkf4wwNU-6" value="" style="edgeStyle=orthogonalEdgeStyle;rounded=0;orthogonalLoop=1;jettySize=auto;html=1;" edge="1" parent="1" source="HxF071hYW-Vpzkf4wwNU-3" target="HxF071hYW-Vpzkf4wwNU-5">
          <mxGeometry relative="1" as="geometry" />
        </mxCell>
        <mxCell id="HxF071hYW-Vpzkf4wwNU-7" value="true" style="edgeLabel;html=1;align=center;verticalAlign=middle;resizable=0;points=[];" vertex="1" connectable="0" parent="HxF071hYW-Vpzkf4wwNU-6">
          <mxGeometry x="-0.24" y="1" relative="1" as="geometry">
            <mxPoint as="offset" />
          </mxGeometry>
        </mxCell>
        <mxCell id="HxF071hYW-Vpzkf4wwNU-9" value="" style="edgeStyle=orthogonalEdgeStyle;rounded=0;orthogonalLoop=1;jettySize=auto;html=1;" edge="1" parent="1" source="HxF071hYW-Vpzkf4wwNU-3" target="HxF071hYW-Vpzkf4wwNU-8">
          <mxGeometry relative="1" as="geometry" />
        </mxCell>
        <mxCell id="HxF071hYW-Vpzkf4wwNU-10" value="false" style="edgeLabel;html=1;align=center;verticalAlign=middle;resizable=0;points=[];" vertex="1" connectable="0" parent="HxF071hYW-Vpzkf4wwNU-9">
          <mxGeometry x="-0.18" y="-3" relative="1" as="geometry">
            <mxPoint as="offset" />
          </mxGeometry>
        </mxCell>
        <mxCell id="HxF071hYW-Vpzkf4wwNU-3" value="max&amp;lt;n2&lt;br&gt;min&amp;gt;n2" style="rhombus;whiteSpace=wrap;html=1;" vertex="1" parent="1">
          <mxGeometry x="340" y="450" width="80" height="80" as="geometry" />
        </mxCell>
        <mxCell id="HxF071hYW-Vpzkf4wwNU-16" style="edgeStyle=orthogonalEdgeStyle;rounded=0;orthogonalLoop=1;jettySize=auto;html=1;entryX=1;entryY=0.5;entryDx=0;entryDy=0;" edge="1" parent="1" source="HxF071hYW-Vpzkf4wwNU-5" target="HxF071hYW-Vpzkf4wwNU-8">
          <mxGeometry relative="1" as="geometry">
            <mxPoint x="540" y="650" as="targetPoint" />
            <Array as="points">
              <mxPoint x="540" y="650" />
            </Array>
          </mxGeometry>
        </mxCell>
        <mxCell id="HxF071hYW-Vpzkf4wwNU-5" value="max=n2&lt;br&gt;min=n2" style="whiteSpace=wrap;html=1;" vertex="1" parent="1">
          <mxGeometry x="480" y="460" width="120" height="60" as="geometry" />
        </mxCell>
        <mxCell id="HxF071hYW-Vpzkf4wwNU-14" value="" style="edgeStyle=orthogonalEdgeStyle;rounded=0;orthogonalLoop=1;jettySize=auto;html=1;" edge="1" parent="1" source="HxF071hYW-Vpzkf4wwNU-8" target="HxF071hYW-Vpzkf4wwNU-13">
          <mxGeometry relative="1" as="geometry" />
        </mxCell>
        <mxCell id="HxF071hYW-Vpzkf4wwNU-15" value="true" style="edgeLabel;html=1;align=center;verticalAlign=middle;resizable=0;points=[];" vertex="1" connectable="0" parent="HxF071hYW-Vpzkf4wwNU-14">
          <mxGeometry x="-0.1267" y="-3" relative="1" as="geometry">
            <mxPoint as="offset" />
          </mxGeometry>
        </mxCell>
        <mxCell id="HxF071hYW-Vpzkf4wwNU-18" value="" style="edgeStyle=orthogonalEdgeStyle;rounded=0;orthogonalLoop=1;jettySize=auto;html=1;" edge="1" parent="1" source="HxF071hYW-Vpzkf4wwNU-8" target="HxF071hYW-Vpzkf4wwNU-17">
          <mxGeometry relative="1" as="geometry" />
        </mxCell>
        <mxCell id="HxF071hYW-Vpzkf4wwNU-19" value="false" style="edgeLabel;html=1;align=center;verticalAlign=middle;resizable=0;points=[];" vertex="1" connectable="0" parent="HxF071hYW-Vpzkf4wwNU-18">
          <mxGeometry x="-0.0267" y="1" relative="1" as="geometry">
            <mxPoint as="offset" />
          </mxGeometry>
        </mxCell>
        <mxCell id="HxF071hYW-Vpzkf4wwNU-8" value="max&amp;lt;n3&lt;br&gt;min&amp;gt;n3" style="rhombus;whiteSpace=wrap;html=1;" vertex="1" parent="1">
          <mxGeometry x="340" y="610" width="80" height="80" as="geometry" />
        </mxCell>
        <mxCell id="HxF071hYW-Vpzkf4wwNU-13" value="max=n3&lt;br&gt;min=n3" style="whiteSpace=wrap;html=1;" vertex="1" parent="1">
          <mxGeometry x="160" y="620" width="120" height="60" as="geometry" />
        </mxCell>
        <mxCell id="HxF071hYW-Vpzkf4wwNU-21" value="" style="edgeStyle=orthogonalEdgeStyle;rounded=0;orthogonalLoop=1;jettySize=auto;html=1;" edge="1" parent="1" source="HxF071hYW-Vpzkf4wwNU-17" target="HxF071hYW-Vpzkf4wwNU-20">
          <mxGeometry relative="1" as="geometry" />
        </mxCell>
        <mxCell id="HxF071hYW-Vpzkf4wwNU-17" value="max,min" style="shape=parallelogram;perimeter=parallelogramPerimeter;whiteSpace=wrap;html=1;fixedSize=1;" vertex="1" parent="1">
          <mxGeometry x="320" y="780" width="120" height="60" as="geometry" />
        </mxCell>
        <mxCell id="HxF071hYW-Vpzkf4wwNU-20" value="End" style="ellipse;whiteSpace=wrap;html=1;" vertex="1" parent="1">
          <mxGeometry x="320" y="880" width="120" height="80" as="geometry" />
        </mxCell>
      </root>
    </mxGraphModel>
  </diagram>
  <diagram id="F5YuTO9THXRhbs5bYbxt" name="BT5">
    <mxGraphModel dx="1290" dy="534" grid="1" gridSize="10" guides="1" tooltips="1" connect="1" arrows="1" fold="1" page="1" pageScale="1" pageWidth="827" pageHeight="1169" math="0" shadow="0">
      <root>
        <mxCell id="0" />
        <mxCell id="1" parent="0" />
        <mxCell id="eF_UXPz6VeH4dgsTv3DX-3" value="" style="edgeStyle=orthogonalEdgeStyle;rounded=0;orthogonalLoop=1;jettySize=auto;html=1;" edge="1" parent="1" source="eF_UXPz6VeH4dgsTv3DX-1" target="eF_UXPz6VeH4dgsTv3DX-2">
          <mxGeometry relative="1" as="geometry" />
        </mxCell>
        <mxCell id="eF_UXPz6VeH4dgsTv3DX-1" value="Start" style="ellipse;whiteSpace=wrap;html=1;" vertex="1" parent="1">
          <mxGeometry x="354" y="40" width="120" height="80" as="geometry" />
        </mxCell>
        <mxCell id="eF_UXPz6VeH4dgsTv3DX-5" value="" style="edgeStyle=orthogonalEdgeStyle;rounded=0;orthogonalLoop=1;jettySize=auto;html=1;" edge="1" parent="1" source="eF_UXPz6VeH4dgsTv3DX-2" target="eF_UXPz6VeH4dgsTv3DX-4">
          <mxGeometry relative="1" as="geometry" />
        </mxCell>
        <mxCell id="eF_UXPz6VeH4dgsTv3DX-2" value="a,b,c,d" style="shape=parallelogram;perimeter=parallelogramPerimeter;whiteSpace=wrap;html=1;fixedSize=1;" vertex="1" parent="1">
          <mxGeometry x="354" y="160" width="120" height="60" as="geometry" />
        </mxCell>
        <mxCell id="eF_UXPz6VeH4dgsTv3DX-7" value="" style="edgeStyle=orthogonalEdgeStyle;rounded=0;orthogonalLoop=1;jettySize=auto;html=1;" edge="1" parent="1" source="eF_UXPz6VeH4dgsTv3DX-4" target="eF_UXPz6VeH4dgsTv3DX-6">
          <mxGeometry relative="1" as="geometry" />
        </mxCell>
        <mxCell id="eF_UXPz6VeH4dgsTv3DX-4" value="Tong=a+b+c+d" style="whiteSpace=wrap;html=1;" vertex="1" parent="1">
          <mxGeometry x="354" y="300" width="120" height="60" as="geometry" />
        </mxCell>
        <mxCell id="eF_UXPz6VeH4dgsTv3DX-9" value="" style="edgeStyle=orthogonalEdgeStyle;rounded=0;orthogonalLoop=1;jettySize=auto;html=1;" edge="1" parent="1" source="eF_UXPz6VeH4dgsTv3DX-6" target="eF_UXPz6VeH4dgsTv3DX-8">
          <mxGeometry relative="1" as="geometry" />
        </mxCell>
        <mxCell id="eF_UXPz6VeH4dgsTv3DX-6" value="Tong&lt;br&gt;d,c,b,a" style="shape=parallelogram;perimeter=parallelogramPerimeter;whiteSpace=wrap;html=1;fixedSize=1;" vertex="1" parent="1">
          <mxGeometry x="354" y="440" width="120" height="60" as="geometry" />
        </mxCell>
        <mxCell id="eF_UXPz6VeH4dgsTv3DX-8" value="End" style="ellipse;whiteSpace=wrap;html=1;" vertex="1" parent="1">
          <mxGeometry x="354" y="540" width="120" height="80" as="geometry" />
        </mxCell>
      </root>
    </mxGraphModel>
  </diagram>
  <diagram id="fOTp2nhpyAP2DkTSW-fe" name="BT6">
    <mxGraphModel dx="1290" dy="534" grid="1" gridSize="10" guides="1" tooltips="1" connect="1" arrows="1" fold="1" page="1" pageScale="1" pageWidth="827" pageHeight="1169" math="0" shadow="0">
      <root>
        <mxCell id="0" />
        <mxCell id="1" parent="0" />
        <mxCell id="dPcthX7GOqGSKJh4hjwZ-3" value="" style="edgeStyle=orthogonalEdgeStyle;rounded=0;orthogonalLoop=1;jettySize=auto;html=1;" edge="1" parent="1" source="dPcthX7GOqGSKJh4hjwZ-1" target="dPcthX7GOqGSKJh4hjwZ-2">
          <mxGeometry relative="1" as="geometry" />
        </mxCell>
        <mxCell id="dPcthX7GOqGSKJh4hjwZ-1" value="Start" style="ellipse;whiteSpace=wrap;html=1;" vertex="1" parent="1">
          <mxGeometry x="354" y="70" width="120" height="80" as="geometry" />
        </mxCell>
        <mxCell id="dPcthX7GOqGSKJh4hjwZ-5" value="" style="edgeStyle=orthogonalEdgeStyle;rounded=0;orthogonalLoop=1;jettySize=auto;html=1;" edge="1" parent="1" source="dPcthX7GOqGSKJh4hjwZ-2" target="dPcthX7GOqGSKJh4hjwZ-4">
          <mxGeometry relative="1" as="geometry" />
        </mxCell>
        <mxCell id="dPcthX7GOqGSKJh4hjwZ-2" value="year,current_year" style="shape=parallelogram;perimeter=parallelogramPerimeter;whiteSpace=wrap;html=1;fixedSize=1;" vertex="1" parent="1">
          <mxGeometry x="354" y="200" width="120" height="60" as="geometry" />
        </mxCell>
        <mxCell id="dPcthX7GOqGSKJh4hjwZ-7" value="" style="edgeStyle=orthogonalEdgeStyle;rounded=0;orthogonalLoop=1;jettySize=auto;html=1;" edge="1" parent="1" source="dPcthX7GOqGSKJh4hjwZ-4" target="dPcthX7GOqGSKJh4hjwZ-6">
          <mxGeometry relative="1" as="geometry" />
        </mxCell>
        <mxCell id="dPcthX7GOqGSKJh4hjwZ-4" value="Tuoi=current_year-year" style="whiteSpace=wrap;html=1;" vertex="1" parent="1">
          <mxGeometry x="341" y="320" width="146" height="60" as="geometry" />
        </mxCell>
        <mxCell id="dPcthX7GOqGSKJh4hjwZ-9" value="" style="edgeStyle=orthogonalEdgeStyle;rounded=0;orthogonalLoop=1;jettySize=auto;html=1;" edge="1" parent="1" source="dPcthX7GOqGSKJh4hjwZ-6" target="dPcthX7GOqGSKJh4hjwZ-10">
          <mxGeometry relative="1" as="geometry">
            <mxPoint x="514" y="490" as="targetPoint" />
          </mxGeometry>
        </mxCell>
        <mxCell id="dPcthX7GOqGSKJh4hjwZ-16" value="true" style="edgeLabel;html=1;align=center;verticalAlign=middle;resizable=0;points=[];" vertex="1" connectable="0" parent="dPcthX7GOqGSKJh4hjwZ-9">
          <mxGeometry x="-0.097" y="3" relative="1" as="geometry">
            <mxPoint as="offset" />
          </mxGeometry>
        </mxCell>
        <mxCell id="dPcthX7GOqGSKJh4hjwZ-12" value="" style="edgeStyle=orthogonalEdgeStyle;rounded=0;orthogonalLoop=1;jettySize=auto;html=1;" edge="1" parent="1" source="dPcthX7GOqGSKJh4hjwZ-6" target="dPcthX7GOqGSKJh4hjwZ-11">
          <mxGeometry relative="1" as="geometry" />
        </mxCell>
        <mxCell id="dPcthX7GOqGSKJh4hjwZ-17" value="false" style="edgeLabel;html=1;align=center;verticalAlign=middle;resizable=0;points=[];" vertex="1" connectable="0" parent="dPcthX7GOqGSKJh4hjwZ-12">
          <mxGeometry x="-0.0267" relative="1" as="geometry">
            <mxPoint as="offset" />
          </mxGeometry>
        </mxCell>
        <mxCell id="dPcthX7GOqGSKJh4hjwZ-6" value="Tuoi%2==0" style="rhombus;whiteSpace=wrap;html=1;" vertex="1" parent="1">
          <mxGeometry x="374" y="450" width="80" height="80" as="geometry" />
        </mxCell>
        <mxCell id="dPcthX7GOqGSKJh4hjwZ-14" style="edgeStyle=orthogonalEdgeStyle;rounded=0;orthogonalLoop=1;jettySize=auto;html=1;exitX=1;exitY=0.5;exitDx=0;exitDy=0;entryX=0.5;entryY=0;entryDx=0;entryDy=0;" edge="1" parent="1" source="dPcthX7GOqGSKJh4hjwZ-10" target="dPcthX7GOqGSKJh4hjwZ-13">
          <mxGeometry relative="1" as="geometry">
            <Array as="points">
              <mxPoint x="680" y="490" />
              <mxPoint x="680" y="565" />
              <mxPoint x="630" y="565" />
            </Array>
          </mxGeometry>
        </mxCell>
        <mxCell id="dPcthX7GOqGSKJh4hjwZ-10" value="chan" style="shape=parallelogram;perimeter=parallelogramPerimeter;whiteSpace=wrap;html=1;fixedSize=1;" vertex="1" parent="1">
          <mxGeometry x="510" y="460" width="120" height="60" as="geometry" />
        </mxCell>
        <mxCell id="dPcthX7GOqGSKJh4hjwZ-15" value="" style="edgeStyle=orthogonalEdgeStyle;rounded=0;orthogonalLoop=1;jettySize=auto;html=1;" edge="1" parent="1" source="dPcthX7GOqGSKJh4hjwZ-11" target="dPcthX7GOqGSKJh4hjwZ-13">
          <mxGeometry relative="1" as="geometry" />
        </mxCell>
        <mxCell id="dPcthX7GOqGSKJh4hjwZ-11" value="le" style="shape=parallelogram;perimeter=parallelogramPerimeter;whiteSpace=wrap;html=1;fixedSize=1;" vertex="1" parent="1">
          <mxGeometry x="354" y="620" width="120" height="60" as="geometry" />
        </mxCell>
        <mxCell id="dPcthX7GOqGSKJh4hjwZ-13" value="End" style="ellipse;whiteSpace=wrap;html=1;" vertex="1" parent="1">
          <mxGeometry x="570" y="610" width="120" height="80" as="geometry" />
        </mxCell>
      </root>
    </mxGraphModel>
  </diagram>
</mxfile>
